<?xml version="1.0" standalone="no"?>
<!DOCTYPE svg PUBLIC "-//W3C//DTD SVG 1.1//EN" "http://www.w3.org/Graphics/SVG/1.1/DTD/svg11.dtd" >
<svg xmlns="http://www.w3.org/2000/svg">
<metadata></metadata>
<defs>
<font id="basicgothicproregular" horiz-adv-x="1144" >
<font-face units-per-em="2048" ascent="1587" descent="-461" />
<missing-glyph horiz-adv-x="567" />
<glyph horiz-adv-x="0" />
<glyph horiz-adv-x="0" />
<glyph horiz-adv-x="682" />
<glyph unicode="&#xd;" horiz-adv-x="567" />
<glyph unicode=" "  horiz-adv-x="567" />
<glyph unicode="&#x09;" horiz-adv-x="567" />
<glyph unicode="&#xa0;" horiz-adv-x="567" />
<glyph unicode="!" horiz-adv-x="630" d="M209 109q0 56 35 92.5t90 36.5t91 -36.5t36 -92.5q0 -57 -35.5 -92t-91.5 -35t-90.5 35t-34.5 92zM262 475v873h152v-873h-152z" />
<glyph unicode="&#x22;" horiz-adv-x="913" d="M193 1389h172l-29 -510h-117zM549 1389h172l-29 -510h-119z" />
<glyph unicode="#" horiz-adv-x="1288" d="M154 254v125h180l102 592h-166v123h187l43 247h137l-43 -247h242l43 247h137l-43 -247h205l-19 -123h-207l-100 -592h207l-17 -125h-211l-43 -254h-139l43 254h-241l-43 -254h-138l43 254h-159zM471 379h242l102 592h-242z" />
<glyph unicode="$" horiz-adv-x="1118" d="M127 121v180q66 -73 162 -125t209 -59v516l-33 10q-63 21 -108.5 41t-90.5 51t-73 67.5t-45 89.5t-17 118q0 78 29 141.5t80 105t116 67t142 34.5v119h123v-117q109 -8 193.5 -41.5t129.5 -67.5v-178q-141 134 -323 150v-475l32 -11q76 -23 132.5 -52t104 -72.5 t72.5 -107t25 -145.5q0 -142 -97 -246.5t-269 -127.5v-156h-123v152q-129 7 -228.5 51.5t-142.5 87.5zM287 1012q0 -83 53 -137t158 -89v433q-94 -16 -152.5 -68.5t-58.5 -138.5zM621 125q104 20 160.5 83.5t56.5 151.5q0 90 -60 144t-157 90v-469z" />
<glyph unicode="%" horiz-adv-x="1976" d="M152 965q0 172 103.5 284.5t270.5 112.5q168 0 273.5 -112.5t105.5 -284.5t-105 -283t-274 -111q-167 0 -270.5 111t-103.5 283zM297 967q0 -116 61 -190.5t168 -74.5q110 0 173 74.5t63 190.5q0 120 -64 194t-172 74q-105 0 -167 -74t-62 -194zM508 0l813 1343h154 l-816 -1343h-151zM1069 373q0 173 103.5 285t271.5 112t273.5 -112.5t105.5 -284.5t-105 -282.5t-274 -110.5q-168 0 -271.5 110.5t-103.5 282.5zM1212 377q0 -116 62.5 -191t169.5 -75q109 0 172 75t63 191q0 118 -64.5 192t-170.5 74q-105 0 -168.5 -74t-63.5 -192z" />
<glyph unicode="&#x26;" horiz-adv-x="1429" d="M152 313q0 29 5.5 57t12 50t23.5 47t27 40.5t35 39t36 33.5t42.5 33.5t41 30t43.5 30.5l8 6l-39 39q-47 47 -71.5 74t-58 71.5t-49 88.5t-15.5 91q0 129 101.5 223.5t262.5 94.5q170 0 273.5 -92t103.5 -221q0 -155 -195 -297l-114 -84l282 -279l381 418v-205l-280 -311 l102 -101q73 -73 133 -73q33 0 45 8v-139q-24 -6 -47 -6q-77 0 -120 23t-105 87l-101 100l-12 -14q-176 -194 -389 -194q-167 0 -264.5 93t-97.5 238zM307 317q0 -88 58.5 -143t148.5 -55q92 0 155 39t136 116l12 15l-301 299q-55 -41 -81.5 -62.5t-62 -58t-50.5 -72.5 t-15 -78zM338 1044q0 -42 24.5 -88t50.5 -75.5t70 -71.5l52 -51l67 47q35 25 48.5 35.5t39.5 30.5t36 31t25.5 30t21 34t10.5 35.5t5 42.5q0 76 -63 128.5t-168 52.5q-102 0 -160.5 -52.5t-58.5 -128.5z" />
<glyph unicode="'" horiz-adv-x="559" d="M193 1389h172l-29 -510h-117z" />
<glyph unicode="(" horiz-adv-x="745" d="M145 483q0 127 20 245.5t51.5 206t69.5 164t76.5 127.5t70 88t51.5 54l20 16h151q-7 -6 -20 -18t-50.5 -54.5t-71 -91t-75 -128t-71 -165.5t-50 -203t-20.5 -241q0 -120 19.5 -234.5t51.5 -201t70 -164t76 -130.5t70 -91.5t52 -57.5l19 -18h-151q-8 6 -20.5 17t-50 52 t-71.5 88.5t-75.5 126t-71 164t-50 204t-20.5 245.5z" />
<glyph unicode=")" horiz-adv-x="745" d="M90 -414q8 6 20.5 18.5t50 56.5t71.5 93t75.5 129t71 165t50 200t20.5 235q0 124 -20 240.5t-51.5 204t-69.5 164t-76.5 129t-70 90.5t-51.5 55l-20 18h154q7 -6 20 -17.5t50 -52.5t70.5 -88.5t74.5 -126.5t70.5 -165t50 -205t20.5 -246t-19.5 -245t-51 -205t-69.5 -163 t-76 -127t-69.5 -87.5t-50.5 -53.5l-20 -16h-154z" />
<glyph unicode="*" horiz-adv-x="1157" d="M174 1411l88 92l273 -229l98 358l117 -53l-123 -330l350 13l-19 -129l-335 22l120 -346l-125 -23l-96 351l-289 -226l-55 113l287 188z" />
<glyph unicode="+" horiz-adv-x="1331" d="M201 629v131h391v401h141v-401h395v-131h-395v-400h-141v400h-391z" />
<glyph unicode="," horiz-adv-x="598" d="M184 -295l49 518h183l-113 -518h-119z" />
<glyph unicode="-" horiz-adv-x="942" d="M152 506v131h639l-17 -131h-622z" />
<glyph unicode="." horiz-adv-x="598" d="M172 111q0 56 36.5 93.5t92.5 37.5q55 0 93 -38t38 -93q0 -58 -37.5 -93.5t-93.5 -35.5q-57 0 -93 35.5t-36 93.5z" />
<glyph unicode="/" horiz-adv-x="768" d="M-12 0l641 1343h151l-639 -1343h-153z" />
<glyph unicode="0" horiz-adv-x="1206" d="M131 666q0 136 28.5 257.5t84.5 221t150.5 158.5t215.5 59q122 0 217 -59t151.5 -158.5t85 -221t28.5 -257.5q0 -110 -17 -208.5t-54 -186.5t-92 -152t-137 -101.5t-182 -37.5q-124 0 -218.5 56.5t-150 154t-83 217.5t-27.5 258zM293 666q0 -551 317 -551q318 0 318 551 q0 109 -15.5 203t-50 177.5t-99 132t-153.5 48.5q-71 0 -127 -33t-91 -86.5t-58 -128t-32 -151t-9 -162.5z" />
<glyph unicode="1" horiz-adv-x="962" d="M104 770v178l459 393h162v-1341h-154v1163z" />
<glyph unicode="2" horiz-adv-x="1155" d="M111 0v4l172 174q252 257 335 353q164 192 193 326q8 36 8 71q0 141 -79.5 219t-225.5 78q-94 0 -196 -46t-164 -100v168q58 43 156 79t204 36q221 0 340 -118t119 -316q0 -51 -13.5 -104.5t-31.5 -98t-55.5 -100t-66.5 -94.5t-83.5 -99.5t-88 -95t-99.5 -102t-99 -101.5 h568v-133h-893z" />
<glyph unicode="3" horiz-adv-x="1107" d="M135 74v166q42 -44 150.5 -84.5t210.5 -40.5q145 0 227 78t82 206q0 62 -28 113t-74.5 86t-109.5 60t-129 37.5t-136 15.5l370 493h-563v137h826v-10l-412 -534q79 -14 146 -41.5t128.5 -73t97 -118.5t35.5 -165q0 -178 -125.5 -298.5t-332.5 -120.5q-179 0 -363 94z" />
<glyph unicode="4" horiz-adv-x="1179" d="M37 410v92l661 839h148v-800h252v-131h-252v-410h-152v410h-657zM238 541h454v587z" />
<glyph unicode="5" horiz-adv-x="1122" d="M145 66v157q59 -38 157 -73t200 -35q150 0 239.5 88t89.5 225q0 135 -84 210t-235 75q-156 0 -330 -41l82 669h692v-137h-563l-47 -366q63 14 166 14q206 0 338.5 -110.5t132.5 -307.5q0 -195 -136 -324.5t-343 -129.5q-109 0 -208 28t-151 58z" />
<glyph unicode="6" horiz-adv-x="1210" d="M135 606q0 345 142 550.5t385 205.5q122 0 217.5 -28t142.5 -56v-156q-53 36 -150.5 69.5t-209.5 33.5q-104 0 -184.5 -63t-126.5 -165.5t-62 -234.5q49 61 134 106t200 45q105 0 191 -37.5t141 -101t84.5 -146.5t29.5 -175q0 -124 -54.5 -231t-161 -174.5t-243.5 -67.5 q-152 0 -260.5 80t-161.5 220t-53 326zM283 590q6 -221 90 -348t239 -127q137 0 222.5 100.5t85.5 237.5q0 143 -81 234t-216 91q-207 0 -340 -188z" />
<glyph unicode="7" horiz-adv-x="1075" d="M98 1204v137h918l-643 -1341h-162l586 1204h-699z" />
<glyph unicode="8" horiz-adv-x="1222" d="M141 383q0 72 26.5 134t61.5 99t77 65.5t66.5 39.5t37.5 14q-11 2 -33 11.5t-53.5 32.5t-58.5 54t-46.5 80t-19.5 105q0 151 117.5 247.5t295.5 96.5q172 0 292 -96.5t120 -247.5q0 -57 -19.5 -106t-46 -79t-58.5 -53t-53 -32.5t-32 -12.5q14 -5 35.5 -14.5t65 -38.5 t77.5 -66t61 -99t27 -134q0 -176 -132 -288.5t-337 -112.5q-207 0 -339 112t-132 289zM297 389q0 -113 88.5 -193.5t224.5 -80.5q141 0 228.5 80t87.5 194q0 115 -90 192.5t-226 77.5q-130 0 -221.5 -79.5t-91.5 -190.5zM352 1016q0 -92 74.5 -155.5t185.5 -63.5 q106 0 182 63.5t76 155.5t-71 150.5t-187 58.5q-119 0 -189.5 -58.5t-70.5 -150.5z" />
<glyph unicode="9" horiz-adv-x="1206" d="M141 887q0 93 30.5 177.5t87 151.5t145 106.5t196.5 39.5q154 0 260.5 -83t158.5 -230t52 -349q0 -214 -61 -376t-179.5 -253t-279.5 -91q-127 0 -223 28.5t-138 57.5v163q51 -40 145.5 -77t215.5 -37q106 0 187.5 64.5t125.5 167t58 233.5q-51 -63 -134 -108.5 t-198 -45.5q-107 0 -194 37.5t-142 101.5t-84 146.5t-29 175.5zM293 887q0 -142 79.5 -233t217.5 -91q208 0 334 180q-6 225 -85.5 353.5t-238.5 128.5q-96 0 -167 -48.5t-105.5 -124t-34.5 -165.5z" />
<glyph unicode=":" horiz-adv-x="606" d="M176 109q0 56 35 91.5t90 35.5t91 -36t36 -91q0 -57 -35.5 -92t-91.5 -35t-90.5 35t-34.5 92zM176 850q0 56 36 91.5t91 35.5q53 0 89 -36t36 -91q0 -56 -36 -91.5t-89 -35.5q-56 0 -91.5 35t-35.5 92z" />
<glyph unicode=";" horiz-adv-x="606" d="M170 -295l49 518h182l-112 -518h-119zM176 850q0 55 35.5 91t89.5 36t90.5 -36t36.5 -91q0 -56 -36 -91.5t-91 -35.5t-90 35.5t-35 91.5z" />
<glyph unicode="&#x3c;" horiz-adv-x="1331" d="M215 600v152l899 395v-152l-729 -321l729 -316v-155z" />
<glyph unicode="=" horiz-adv-x="1331" d="M201 336v129h927v-129h-927zM201 905v131h927v-131h-927z" />
<glyph unicode="&#x3e;" horiz-adv-x="1331" d="M215 203v155l727 316l-727 321v152l899 -395v-152z" />
<glyph unicode="?" horiz-adv-x="1028" d="M164 1079v164q34 41 121 80t215 39q194 0 298.5 -95t104.5 -233q0 -65 -33.5 -128.5t-80.5 -113.5t-94.5 -96.5t-81 -95t-33.5 -92.5v-33h-150v33q0 63 32 122.5t78 106t91.5 91.5t77.5 95.5t32 100.5q0 98 -62.5 149.5t-178.5 51.5q-190 0 -336 -146zM375 109 q0 56 35.5 92.5t91.5 36.5q57 0 94 -36.5t37 -92.5q0 -57 -37 -92t-94 -35t-92 35t-35 92z" />
<glyph unicode="@" horiz-adv-x="1986" d="M170 375q0 155 37 303.5t113.5 280t183.5 231t256.5 157.5t322.5 58q177 0 317.5 -55.5t231 -154.5t138 -232.5t47.5 -292.5q0 -104 -15 -203t-47.5 -187.5t-79 -155t-113.5 -105.5t-147 -39q-68 0 -125.5 30.5t-68.5 85.5q-54 -53 -138.5 -84.5t-173.5 -31.5 q-186 0 -290.5 117.5t-104.5 295.5q0 161 66.5 295.5t186.5 213.5t267 79q105 0 172 -35t88 -72l13 87h143l-102 -703q-11 -74 6 -111.5t73 -37.5q83 0 144.5 81.5t90 206t28.5 271.5q0 181 -70 319.5t-210 219.5t-333 81q-145 0 -271.5 -50t-218 -137.5t-157.5 -203 t-98.5 -249t-32.5 -273.5q0 -195 74.5 -353t221 -253t341.5 -95q233 0 416 136l-21 -148q-191 -104 -399 -104q-177 0 -322 64t-240.5 175t-147.5 259.5t-52 318.5zM666 393q0 -123 70 -203.5t198 -80.5q158 0 264 100l74 526q-17 40 -77 76.5t-171 36.5q-107 0 -190.5 -68 t-125.5 -170.5t-42 -216.5z" />
<glyph unicode="A" horiz-adv-x="1269" d="M74 0l487 1343h150l487 -1343h-149l-150 393h-534l-140 -393h-151zM403 520h455l-223 639z" />
<glyph unicode="B" horiz-adv-x="1214" d="M203 0v1343h395q201 0 313.5 -95t112.5 -259q0 -61 -19.5 -113.5t-46 -85t-61 -58t-57 -36t-41.5 -16.5v-2q26 -6 48.5 -13.5t68 -32.5t76.5 -56.5t56 -88.5t25 -127q0 -177 -126.5 -268.5t-350.5 -91.5h-393zM354 133h244q160 0 241 56.5t81 179.5q0 114 -84 175.5 t-238 61.5h-244v-473zM354 739h248q127 0 197.5 65.5t70.5 174.5t-68.5 170t-201.5 61h-246v-471z" />
<glyph unicode="C" horiz-adv-x="1216" d="M111 670q0 203 73.5 359.5t211.5 244.5t321 88q210 0 364 -105v-167q-60 54 -154.5 94.5t-207.5 40.5q-204 0 -328.5 -148t-124.5 -405q0 -156 57.5 -282t166.5 -199.5t249 -73.5q103 0 179.5 24t148.5 82l-2 -164q-43 -28 -128 -53.5t-198 -25.5q-145 0 -263.5 51 t-198 142.5t-123 218.5t-43.5 278z" />
<glyph unicode="D" horiz-adv-x="1333" d="M205 0v1343h373q136 0 247 -37.5t184 -100t122 -147t70.5 -173.5t21.5 -185q0 -335 -164 -517.5t-490 -182.5h-364zM358 133h213q253 0 374.5 139t121.5 428q0 229 -128.5 369.5t-367.5 140.5h-213v-1077z" />
<glyph unicode="E" horiz-adv-x="1214" d="M203 0v1343h850v-139h-699v-409h699v-131h-699v-527h699v-137h-850z" />
<glyph unicode="F" horiz-adv-x="1148" d="M203 0v1343h829v-139h-678v-461h693v-133h-693v-610h-151z" />
<glyph unicode="G" horiz-adv-x="1368" d="M111 662q0 203 74 361t215.5 248.5t330.5 90.5q246 0 438 -94v-158q-205 115 -436 115q-114 0 -204.5 -44.5t-147 -122.5t-86 -180.5t-29.5 -222.5q0 -246 120.5 -393t346.5 -147q193 0 316 65v359h-406v133h547v-574q-195 -118 -457 -118q-294 0 -458 181.5t-164 500.5z " />
<glyph unicode="H" horiz-adv-x="1406" d="M203 0v1343h151v-575h703v575h151v-1343h-151v635h-703v-635h-151z" />
<glyph unicode="I" horiz-adv-x="581" d="M217 0v1343h150v-1343h-150z" />
<glyph unicode="J" horiz-adv-x="1040" d="M78 104v164q51 -57 141.5 -106t198.5 -49q143 0 215 88t72 299v843h151v-843q0 -261 -101.5 -390.5t-336.5 -129.5q-121 0 -208.5 39t-131.5 85z" />
<glyph unicode="K" horiz-adv-x="1263" d="M203 0v1343h151v-710l617 710h188l-483 -548l502 -795h-179l-432 682l-213 -240v-442h-151z" />
<glyph unicode="L" horiz-adv-x="1099" d="M203 0v1343h151v-1206h652v-137h-803z" />
<glyph unicode="M" horiz-adv-x="1783" d="M205 0v1343h168l522 -1073l516 1073h168v-1343h-152v1065l-522 -1085h-26l-521 1087v-1067h-153z" />
<glyph unicode="N" horiz-adv-x="1404" d="M205 0v1343h137l702 -1089v1089h150v-1343h-147l-689 1073v-1073h-153z" />
<glyph unicode="O" horiz-adv-x="1376" d="M111 666q0 118 23 222.5t70.5 191.5t116.5 149.5t164.5 97.5t210.5 35q138 0 248 -54.5t179 -148.5t105 -213.5t36 -255.5q0 -149 -36.5 -277t-105.5 -225t-178.5 -152.5t-247.5 -55.5q-114 0 -210.5 37t-164.5 101.5t-116 151.5t-71 187t-23 209zM266 666 q0 -106 25.5 -201.5t76 -175t135 -127t193.5 -47.5q87 0 157.5 31.5t117 85t78 127.5t45.5 156.5t14 174.5q0 83 -15 160t-47.5 145.5t-80 119.5t-116.5 80.5t-153 29.5q-91 0 -164 -30t-122 -81t-82 -123t-47.5 -152.5t-14.5 -172.5z" />
<glyph unicode="P" horiz-adv-x="1249" d="M203 0v1343h440q243 0 374.5 -115.5t131.5 -326.5t-135.5 -325.5t-374.5 -114.5h-285v-461h-151zM354 594h285q356 0 356 307q0 151 -93.5 230t-258.5 79h-289v-616z" />
<glyph unicode="Q" horiz-adv-x="1376" d="M111 666q0 201 64 356t197.5 247.5t321.5 92.5q138 0 248.5 -54.5t179.5 -148t105.5 -213.5t36.5 -256q0 -177 -51.5 -325.5t-149.5 -243.5l151 -225l-112 -74l-146 219q-116 -61 -260 -61q-114 0 -210.5 37t-164.5 101.5t-116 151.5t-71 187t-23 209zM266 666 q0 -105 25.5 -201t75.5 -175.5t134.5 -127t192.5 -47.5q106 0 185 45l-181 276l105 72l176 -264q129 156 129 446q0 106 -24.5 200t-73.5 170t-130 120.5t-186 44.5q-90 0 -163 -29.5t-121.5 -81t-81.5 -123t-47.5 -152.5t-14.5 -173z" />
<glyph unicode="R" horiz-adv-x="1239" d="M203 0v1343h454q209 0 336 -101.5t127 -283.5q0 -75 -22.5 -137.5t-56 -101.5t-76.5 -68t-79 -42.5t-69 -18.5l307 -590h-172l-280 563h-318v-563h-151zM354 696h301q67 0 121 13t99.5 42t70.5 81.5t25 125.5q0 124 -84.5 188t-231.5 64h-301v-514z" />
<glyph unicode="S" horiz-adv-x="1118" d="M127 121v180q71 -78 176 -131t227 -53q145 0 226.5 68.5t81.5 174.5q0 50 -20 91t-56.5 69t-74 46t-85.5 34l-137 43q-79 24 -134.5 51.5t-103.5 69.5t-72 103.5t-24 142.5q0 88 36 156.5t98.5 110.5t140 63.5t165.5 21.5q127 0 225 -36t148 -75v-178q-156 152 -373 152 q-118 0 -201 -54.5t-83 -158.5q0 -86 56.5 -140t166.5 -90l143 -45q76 -23 132.5 -52t104 -72.5t72.5 -107t25 -145.5q0 -77 -30.5 -145.5t-86.5 -121t-143 -83t-192 -30.5q-140 0 -250.5 47t-157.5 94z" />
<glyph unicode="T" horiz-adv-x="1079" d="M59 1204v139h963v-139h-406v-1204h-153v1204h-404z" />
<glyph unicode="U" horiz-adv-x="1347" d="M178 508v835h152v-835q0 -81 19 -150t58.5 -124.5t107.5 -87t159 -31.5q93 0 162 33.5t107.5 91t56.5 125t18 145.5v833h151v-835q0 -111 -30 -205.5t-89.5 -167.5t-155.5 -114t-220 -41q-232 0 -364 138.5t-132 389.5z" />
<glyph unicode="V" horiz-adv-x="1292" d="M74 1343h155l418 -1134l414 1134h160l-502 -1343h-148z" />
<glyph unicode="W" horiz-adv-x="1906" d="M80 1343h166l282 -1167l336 1167h170l344 -1167l275 1167h174l-352 -1343h-189l-334 1147l-331 -1147h-189z" />
<glyph unicode="X" horiz-adv-x="1224" d="M86 0l432 680l-403 663h180l317 -544l318 544h182l-405 -663l432 -680h-185l-342 557l-342 -557h-184z" />
<glyph unicode="Y" horiz-adv-x="1198" d="M39 1343h170l389 -667l391 667h170l-483 -806v-537h-154v539z" />
<glyph unicode="Z" horiz-adv-x="1095" d="M106 0l658 1204h-621v139h865l-658 -1206h623v-137h-867z" />
<glyph unicode="[" horiz-adv-x="655" d="M197 -416v1800h421v-118l-282 -11v-1540l282 -12v-119h-421z" />
<glyph unicode="\" horiz-adv-x="765" d="M-12 1343h149l641 -1343h-151z" />
<glyph unicode="]" horiz-adv-x="655" d="M35 -295l282 10v1540l-282 11v118h422v-1800h-422v121z" />
<glyph unicode="^" horiz-adv-x="1001" d="M121 795l305 594h154l301 -594h-150l-229 467l-228 -467h-153z" />
<glyph unicode="_" horiz-adv-x="1024" d="M0 -88h1024v-131h-1024v131z" />
<glyph unicode="`" horiz-adv-x="1202" d="M266 1427h150l145 -327h-147z" />
<glyph unicode="a" horiz-adv-x="1150" d="M113 289q0 153 123 230t356 77h180v72q0 95 -56 136.5t-175 41.5q-205 0 -357 -60v146q149 49 359 49q183 0 280 -74t97 -239v-473q0 -86 65 -86q48 0 84 26v-123q-48 -32 -123 -32q-69 0 -107.5 38t-47.5 86q-54 -53 -142 -88.5t-180 -35.5q-162 0 -259 78t-97 231z M262 289q0 -83 57.5 -129.5t169.5 -46.5q100 0 175.5 38t107.5 80v248h-180q-169 0 -249.5 -45.5t-80.5 -144.5z" />
<glyph unicode="b" horiz-adv-x="1210" d="M199 0v1393l149 16v-528q111 100 291 100q142 0 248.5 -69t159.5 -181.5t53 -251.5q0 -218 -128.5 -358.5t-344.5 -140.5q-80 0 -159.5 32.5t-121.5 79.5v-92h-147zM348 227q36 -42 107 -77t157 -35q161 0 248.5 101.5t87.5 262.5q0 166 -87 266.5t-247 100.5 q-94 0 -165.5 -33.5t-100.5 -67.5v-518z" />
<glyph unicode="c" horiz-adv-x="1081" d="M104 492q0 215 138.5 352t355.5 137q129 0 225 -40.5t138 -82.5v-176q-26 32 -70 66t-125.5 66t-167.5 32q-162 0 -252 -98t-90 -256q0 -167 93.5 -272t248.5 -105q66 0 128.5 18.5t108.5 48t76 55.5t50 50v-176q-42 -44 -139 -87.5t-224 -43.5q-218 0 -356 140.5 t-138 371.5z" />
<glyph unicode="d" horiz-adv-x="1206" d="M106 487q0 134 55.5 245t167 180t259.5 69q163 0 272 -82v512l148 16v-1427h-148v84q-46 -45 -119 -74.5t-157 -29.5q-221 0 -349.5 140.5t-128.5 366.5zM258 489q0 -168 85.5 -271t254.5 -103q92 0 161 31.5t101 70.5v545q-36 32 -103 58t-157 26q-158 0 -250 -98.5 t-92 -258.5z" />
<glyph unicode="e" horiz-adv-x="1097" d="M104 494q0 216 129 351.5t332 135.5q85 0 154.5 -25t116 -66t78 -95.5t45.5 -111t14 -114.5q0 -79 -12 -147h-705q8 -134 90.5 -220.5t237.5 -86.5q110 0 215.5 46.5t161.5 94.5v-152q-48 -42 -151.5 -83t-225.5 -41q-239 0 -359.5 140t-120.5 374zM256 539h571 q2 21 2 40q1 115 -61 185q-72 82 -203 82q-136 0 -222.5 -85t-86.5 -222z" />
<glyph unicode="f" horiz-adv-x="931" d="M59 831v130h236v32q0 227 90 343t268 116q88 0 157 -16t103 -33v-143q-38 23 -109 43t-151 20q-118 0 -164.5 -80.5t-46.5 -251.5v-30h402v-130h-402v-831h-147v831h-236z" />
<glyph unicode="g" horiz-adv-x="1212" d="M111 477q0 220 130 362t341 142q92 0 167.5 -35t120.5 -78v93h148v-953q0 -211 -119.5 -332.5t-329.5 -121.5q-209 0 -374 120v156q184 -141 376 -141q143 0 222 83t79 234v109q-43 -57 -120.5 -96t-178.5 -39q-140 0 -247 68.5t-161 180.5t-54 248zM258 479 q0 -163 91 -263.5t235 -100.5q181 0 284 131v485q-119 115 -284 115q-146 0 -236 -97t-90 -270z" />
<glyph unicode="h" horiz-adv-x="1228" d="M199 0v1413l149 17v-547q129 98 303 98q185 0 284 -98.5t99 -266.5v-616h-147v616q0 113 -70.5 171.5t-200.5 58.5q-94 0 -164.5 -31.5t-103.5 -64.5v-750h-149z" />
<glyph unicode="i" horiz-adv-x="595" d="M186 1303q0 46 32 79t79 33q46 0 79.5 -33t33.5 -79q0 -47 -33.5 -80t-79.5 -33q-47 0 -79 33t-32 80zM221 0v961h150v-961h-150z" />
<glyph unicode="j" horiz-adv-x="675" d="M-176 -250q32 -21 93.5 -42t137.5 -21q118 0 184 72.5t66 203.5v998h148v-1000q0 -104 -31.5 -183.5t-87 -127.5t-126 -72t-153.5 -24q-73 0 -136 17.5t-95 35.5v143zM266 1303q0 46 31 79t78 33q46 0 79 -33t33 -79q0 -47 -33 -80t-79 -33q-47 0 -78 32.5t-31 80.5z" />
<glyph unicode="k" horiz-adv-x="1171" d="M199 0v1413l149 17v-945l543 476h201l-430 -371l411 -590h-178l-340 496l-207 -174v-322h-149z" />
<glyph unicode="l" horiz-adv-x="548" d="M199 0v1413l149 17v-1430h-149z" />
<glyph unicode="m" horiz-adv-x="1880" d="M199 0v961h149v-78q129 98 295 98q226 0 318 -147q64 67 156 107t196 40q180 0 277.5 -96.5t97.5 -268.5v-616h-150v616q0 115 -66.5 172.5t-191.5 57.5q-92 0 -165 -36.5t-109 -84.5q12 -52 12 -109v-616h-150v616q0 115 -66.5 172.5t-191.5 57.5q-88 0 -158.5 -31.5 t-103.5 -66.5v-748h-149z" />
<glyph unicode="n" horiz-adv-x="1228" d="M199 0v961h149v-78q133 98 303 98q183 0 284 -97t101 -268v-616h-149v616q0 115 -70 172.5t-199 57.5q-90 0 -162.5 -31.5t-107.5 -66.5v-748h-149z" />
<glyph unicode="o" d="M104 477q0 220 127 362t338 142q214 0 342.5 -142t128.5 -362q0 -219 -128 -358t-343 -139q-212 0 -338.5 139t-126.5 358zM256 479q0 -161 83 -262.5t230 -101.5q151 0 235.5 101.5t84.5 264.5q0 165 -84 265t-236 100q-147 0 -230 -101.5t-83 -265.5z" />
<glyph unicode="p" horiz-adv-x="1198" d="M193 -428v1389h147v-95q115 115 291 115q211 0 336 -140.5t125 -361.5q0 -216 -131 -357.5t-349 -141.5q-82 0 -153 24t-117 64v-496h-149zM342 203q28 -30 95.5 -59t162.5 -29q158 0 249 96.5t91 267.5q0 163 -84.5 265t-255.5 102q-90 0 -158.5 -36.5t-99.5 -78.5v-528 z" />
<glyph unicode="q" horiz-adv-x="1210" d="M111 475q0 227 129 366.5t354 139.5q85 0 155.5 -33t114.5 -82v95h148v-1391l-150 -19v517q-98 -88 -272 -88q-147 0 -257.5 68.5t-166 179.5t-55.5 247zM262 471q0 -161 90 -258.5t250 -97.5q96 0 163.5 28.5t96.5 59.5v528q-36 42 -102.5 78.5t-159.5 36.5 q-168 0 -253 -102.5t-85 -272.5z" />
<glyph unicode="r" horiz-adv-x="864" d="M199 0v961h149v-119q40 62 105 100.5t149 38.5q113 0 197 -49v-170q-101 74 -230 74q-73 0 -132.5 -36t-88.5 -79v-721h-149z" />
<glyph unicode="s" horiz-adv-x="989" d="M135 711q0 125 102 197.5t275 72.5q174 0 309 -59v-156q-139 80 -309 80q-46 0 -84 -6.5t-71 -20.5t-51.5 -40.5t-18.5 -63.5q0 -89 168 -146l153 -49q50 -17 88.5 -36t75 -49.5t56.5 -75t20 -101.5q0 -72 -30.5 -127t-84.5 -87t-121.5 -48t-146.5 -16q-95 0 -175 21.5 t-128 49.5v154q124 -90 305 -90q62 0 110 10.5t83.5 41.5t35.5 81q0 53 -39 85t-110 56l-150 51q-262 86 -262 271z" />
<glyph unicode="t" horiz-adv-x="913" d="M111 831v130h153v172l148 67v-239h381v-130h-381v-542q0 -83 41.5 -128.5t121.5 -45.5q50 0 114 18t106 41v-143q-34 -17 -100.5 -34t-121.5 -17q-309 0 -309 309v542h-153z" />
<glyph unicode="u" horiz-adv-x="1179" d="M176 348v613h148v-615q0 -231 256 -231q80 0 150.5 27.5t115.5 72.5v746h147v-961h-147v78q-155 -98 -301 -98q-180 0 -274.5 99t-94.5 269z" />
<glyph unicode="v" horiz-adv-x="1077" d="M49 961h170l320 -797l323 797h166l-420 -961h-141z" />
<glyph unicode="w" horiz-adv-x="1622" d="M59 961h156l231 -781l302 781h129l297 -777l231 777h158l-322 -961h-129l-299 782l-309 -782h-127z" />
<glyph unicode="x" horiz-adv-x="1067" d="M80 0l356 475l-354 486h178l272 -396l275 396h176l-352 -486l354 -475h-176l-274 381l-277 -381h-178z" />
<glyph unicode="y" horiz-adv-x="1062" d="M66 961h161l338 -822l291 822h156l-367 -986q-28 -76 -53.5 -132t-62.5 -113.5t-77.5 -93.5t-96 -59t-119.5 -23q-105 0 -168 38v148q96 -51 168 -51q80 0 143.5 69.5t116.5 221.5z" />
<glyph unicode="z" horiz-adv-x="978" d="M88 0l551 834h-512v127h766l-545 -826h506v-135h-766z" />
<glyph unicode="{" horiz-adv-x="772" d="M102 416v141q151 0 222 66t71 221v286q0 275 322 275v-129q-73 -2 -119.5 -39t-46.5 -107v-286q0 -318 -275 -355v-4q55 -7 100.5 -28t87 -60.5t64.5 -109t23 -162.5v-277q0 -74 45.5 -112t120.5 -41v-129q-322 0 -322 274v283q0 70 -15.5 121.5t-40 83t-64 51t-79.5 27 t-94 10.5z" />
<glyph unicode="|" horiz-adv-x="606" d="M242 -416v1800h123v-1800h-123z" />
<glyph unicode="}" horiz-adv-x="772" d="M53 -305q77 3 122.5 41t45.5 112v277q0 93 23 162.5t64 109t86.5 60.5t101.5 28v4q-275 36 -275 355v286q0 70 -46.5 107t-121.5 39v129q322 0 322 -275v-286q0 -155 71.5 -221t223.5 -66v-141q-54 -3 -94 -10.5t-80 -27t-65 -51t-40.5 -83t-15.5 -121.5v-283 q0 -274 -322 -274v129z" />
<glyph unicode="~" horiz-adv-x="1208" d="M141 530v148q32 61 94 103t140 42q49 0 115 -32.5t120 -71t117 -71t107 -32.5q133 0 221 146h12v-148q-32 -61 -93.5 -103t-139.5 -42q-55 0 -123.5 32.5t-122 71t-113.5 71t-100 32.5q-133 0 -223 -146h-11z" />
<glyph unicode="&#xa1;" horiz-adv-x="608" d="M160 856q0 56 36.5 91.5t92.5 35.5q55 0 89 -35t34 -92q0 -56 -34 -92.5t-89 -36.5t-92 36.5t-37 92.5zM207 -383v872h153v-872h-153z" />
<glyph unicode="&#xa2;" horiz-adv-x="1062" d="M102 492q0 215 138.5 352t355.5 137h16l27 123h131l-31 -139q78 -18 136.5 -49t85.5 -58v-176q-99 110 -248 149l-152 -716h35q66 0 129 19t109 48t77 55t50 50v-176q-45 -45 -141.5 -88t-223.5 -43q-25 0 -61 4l-31 -148h-129l37 174q-142 52 -226 178.5t-84 303.5z M254 492q0 -120 49 -209.5t137 -132.5l146 696q-156 -3 -244 -101t-88 -253z" />
<glyph unicode="&#xa3;" horiz-adv-x="1163" d="M102 602v127h254v193q0 92 22.5 166.5t61 125t91.5 84.5t113.5 49t127.5 15q93 0 170.5 -16.5t118.5 -34.5v-142q-43 22 -120 43t-163 21q-142 0 -208 -74t-66 -241v-189h557v-127h-557v-469h534v-133h-686v602h-250z" />
<glyph unicode="&#xa4;" horiz-adv-x="1335" d="M145 1118l99 101l200 -201q94 65 220 65q129 0 227 -69l209 207l92 -93l-213 -210q63 -97 63 -226q0 -123 -57 -217l193 -192l-99 -101l-190 189q-96 -68 -225 -68q-136 0 -228 70l-188 -189l-90 92l190 191q-59 95 -59 225q0 128 59 223zM436 694q0 -112 61 -185 t167 -73q109 0 171 72.5t62 185.5q0 117 -63.5 188.5t-169.5 71.5q-105 0 -166.5 -71.5t-61.5 -188.5z" />
<glyph unicode="&#xa5;" horiz-adv-x="1353" d="M104 438v127h480l-117 195h-363v127h285l-274 456h170l391 -667l391 667h170l-274 -456h288v-127h-366l-117 -195h483v-127h-499v-438h-152v438h-496z" />
<glyph unicode="&#xa6;" horiz-adv-x="591" d="M238 276h124v-706h-124v706zM238 764v670h124v-670h-124z" />
<glyph unicode="&#xa7;" horiz-adv-x="1126" d="M115 487q0 100 56.5 165t160.5 114q-45 25 -78 49.5t-67.5 61.5t-53 85.5t-18.5 106.5q0 155 126.5 245.5t344.5 90.5q89 0 175.5 -16t130.5 -31t73 -29v-155q-66 39 -167 69.5t-212 30.5q-64 0 -118 -10t-101 -32.5t-74 -64t-27 -98.5q0 -42 23 -79.5t62.5 -64.5 t78.5 -45.5t84 -33.5l203 -68q63 -20 111 -44t91 -59t66 -84.5t23 -111.5q0 -83 -62.5 -158t-146.5 -116q47 -25 78.5 -48t64.5 -58.5t49.5 -84t16.5 -110.5q0 -85 -39 -151t-106.5 -106.5t-153 -61.5t-183.5 -21q-131 0 -230 26t-149 54v151q154 -102 381 -102q51 0 96 6 t89.5 21t76 38t51 60.5t19.5 85.5q0 71 -62.5 124.5t-168.5 88.5l-197 65q-50 16 -86.5 31t-83 41.5t-76 57t-50.5 76t-21 99.5zM266 496q0 -31 14 -58t43 -49t60 -39t80.5 -33.5t87.5 -27t96 -25.5q92 29 150.5 85t58.5 122q0 83 -93 134t-286 97q-96 -22 -153.5 -73 t-57.5 -133z" />
<glyph unicode="&#xa8;" horiz-adv-x="1228" d="M270 1303q0 46 31 79t78 33q46 0 79.5 -33t33.5 -79q0 -47 -33.5 -80t-79.5 -33q-47 0 -78 32.5t-31 80.5zM735 1303q0 46 32 79t79 33q46 0 79 -33t33 -79q0 -47 -33 -80t-79 -33q-47 0 -79 33t-32 80z" />
<glyph unicode="&#xa9;" horiz-adv-x="1585" d="M102 672q0 150 51.5 278.5t142.5 219t219.5 141.5t277.5 51q199 0 356.5 -87.5t245.5 -245t88 -357.5t-88 -358t-245.5 -246t-356.5 -88t-357 88t-246 246t-88 358zM221 672q0 -252 161 -416t411 -164q165 0 295 74.5t202 207t72 298.5q0 252 -159.5 413.5t-409.5 161.5 q-251 0 -411.5 -161.5t-160.5 -413.5zM391 674q0 193 113 323.5t295 130.5q89 0 150.5 -22.5t88.5 -46.5v-160q-34 32 -96.5 61t-142.5 29q-120 0 -192 -91t-72 -222q0 -129 74.5 -221.5t203.5 -92.5q77 0 132 21.5t81 44.5v-147q-84 -54 -215 -54q-126 0 -223 61t-147 162 t-50 224z" />
<glyph unicode="&#xaa;" horiz-adv-x="1017" d="M125 801q0 123 97.5 180t291.5 57h139v52q0 40 -14.5 65.5t-42.5 37t-54.5 15.5t-64.5 4q-172 0 -293 -47v125q125 39 295 39q71 0 125 -11t98 -37t67.5 -74t23.5 -117v-359q0 -55 49 -55q26 0 67 18v-108q-45 -29 -108 -29q-93 0 -125 88q-50 -40 -120.5 -64t-139.5 -24 q-135 0 -213 62t-78 182zM264 801q0 -125 172 -125q76 0 132.5 26t84.5 54v178h-139q-132 0 -191 -32.5t-59 -100.5z" />
<glyph unicode="&#xab;" d="M100 451v63l357 387h159l-376 -420l376 -420h-159zM567 451v63l357 387h159l-376 -420l376 -420h-159z" />
<glyph unicode="&#xac;" horiz-adv-x="1331" d="M195 629v131h940v-649h-142v518h-798z" />
<glyph unicode="&#xad;" horiz-adv-x="942" d="M152 506v131h639l-17 -131h-622z" />
<glyph unicode="&#xae;" horiz-adv-x="1173" d="M102 979q0 212 136.5 347.5t347.5 135.5q212 0 348.5 -135.5t136.5 -347.5q0 -213 -136 -349t-349 -136q-211 0 -347.5 136t-136.5 349zM186 979q0 -177 113 -291.5t287 -114.5t285.5 114.5t111.5 291.5t-111 290t-286 113q-174 0 -287 -113.5t-113 -289.5zM369 702v572 h213q114 0 177.5 -42.5t63.5 -129.5q0 -44 -17.5 -79t-42.5 -52.5t-42.5 -26.5t-26.5 -10l127 -232h-114l-109 216h-129v-216h-100zM469 1004h115q69 0 106 21.5t37 72.5q0 49 -36.5 68.5t-108.5 19.5h-113v-182z" />
<glyph unicode="&#xaf;" horiz-adv-x="1228" d="M291 1237v131h633v-131h-633z" />
<glyph unicode="&#xb0;" horiz-adv-x="958" d="M102 965q0 163 103 269.5t270 106.5q169 0 275 -106.5t106 -269.5t-106 -268t-275 -105q-167 0 -270 105t-103 268zM248 969q0 -107 60.5 -175.5t166.5 -68.5q110 0 173 68.5t63 175.5t-64.5 175t-171.5 68q-103 0 -165 -68t-62 -175z" />
<glyph unicode="&#xb1;" horiz-adv-x="1331" d="M195 115v131h940v-131h-940zM195 834v131h399v415h141v-415h400v-131h-400v-414h-141v414h-399z" />
<glyph unicode="&#xb2;" horiz-adv-x="806" d="M86 782v4l117 103q99 87 145.5 130t99.5 99t73 95t20 75q0 66 -48 101.5t-133 35.5q-97 0 -245 -82v134q122 61 245 61q152 0 231 -64.5t79 -175.5q0 -32 -10 -65t-23 -59t-41.5 -60.5t-48 -55t-61.5 -57.5t-62.5 -53.5t-69.5 -56.5h348v-109h-616z" />
<glyph unicode="&#xb3;" horiz-adv-x="778" d="M104 825v127q34 -28 107 -50.5t135 -22.5q86 0 133 34.5t47 96.5q0 43 -33.5 74.5t-87 47t-100.5 22t-92 7.5l221 250h-330v117h560v-12l-252 -287q28 -4 52 -9.5t62.5 -21.5t65.5 -38t47 -60.5t20 -87.5q0 -105 -84.5 -172.5t-226.5 -67.5q-134 0 -244 53z" />
<glyph unicode="&#xb4;" horiz-adv-x="1228" d="M467 1100l145 327h148l-146 -327h-147z" />
<glyph unicode="&#xb5;" horiz-adv-x="1001" d="M102 -428v1389h148v-615q0 -113 60.5 -174t185.5 -61q75 0 143 29t113 75v746h147v-961h-147v78q-155 -98 -289 -98q-125 0 -213 53v-461h-148z" />
<glyph unicode="&#xb6;" horiz-adv-x="1413" d="M174 584q0 197 126 298t345 101h215v-1407h-151v602h-64q-217 0 -344 103.5t-127 302.5zM1018 -424v1407h151v-1407h-151z" />
<glyph unicode="&#xb7;" horiz-adv-x="663" d="M203 575q0 57 36.5 94.5t90.5 37.5q56 0 93.5 -37.5t37.5 -94.5q0 -59 -37 -95t-94 -36q-55 0 -91 36t-36 95z" />
<glyph unicode="&#xb8;" horiz-adv-x="1228" d="M420 -299q53 -16 115 -16q159 0 114 182l-31 133h140l30 -127q13 -44 13 -78q0 -108 -70 -176t-194 -68q-77 0 -117 17v133z" />
<glyph unicode="&#xb9;" horiz-adv-x="681" d="M106 1180v129l310 219h125v-746h-131v596z" />
<glyph unicode="&#xba;" horiz-adv-x="1007" d="M121 942q0 171 104 279t277 108t280 -108.5t107 -278.5t-107 -278.5t-280 -108.5t-277 108t-104 279zM260 944q0 -119 65 -191.5t177 -72.5q115 0 180.5 72.5t65.5 191.5q0 122 -65.5 195t-180.5 73q-113 0 -177.5 -73t-64.5 -195z" />
<glyph unicode="&#xbb;" d="M61 61l375 420l-375 420h158l359 -389v-63l-359 -388h-158zM526 61l377 420l-377 420h160l358 -389v-63l-358 -388h-160z" />
<glyph unicode="&#xbc;" horiz-adv-x="1622" d="M106 995v129l310 219h125v-745h-131v596zM293 2l813 1341h154l-816 -1341h-151zM831 201v65l410 479h133v-436h168v-108h-168v-201h-129v201h-414zM993 305h254v293z" />
<glyph unicode="&#xbd;" horiz-adv-x="1669" d="M106 995v129l310 219h125v-745h-131v596zM293 2l813 1341h154l-816 -1341h-151zM948 0v4l117 102q188 165 263 248.5t75 151.5q0 67 -47.5 102t-132.5 35q-98 0 -246 -82v133q124 62 246 62q152 0 230.5 -64.5t78.5 -175.5q0 -37 -10.5 -73t-36.5 -73t-48 -64.5 t-67.5 -68t-71 -62t-81.5 -66.5h348v-109h-617z" />
<glyph unicode="&#xbe;" horiz-adv-x="1675" d="M104 641v127q35 -28 107.5 -51t134.5 -23q86 0 133 34.5t47 96.5q0 43 -33.5 74.5t-86.5 47t-100.5 22.5t-92.5 8l221 250h-330v116h560v-12l-252 -287q28 -4 52 -9.5t62.5 -21.5t65.5 -38t47 -60.5t20 -87.5q0 -105 -84.5 -172t-226.5 -67q-134 0 -244 53zM346 2 l813 1341h154l-815 -1341h-152zM885 201v65l409 479h133v-436h168v-108h-168v-201h-129v201h-413zM1047 305h253v293z" />
<glyph unicode="&#xbf;" horiz-adv-x="989" d="M104 -72q0 65 33.5 129t81 114t95 96.5t81 95t33.5 92.5v32h152v-32q0 -63 -32.5 -122.5t-78.5 -106t-92 -91.5t-78.5 -96.5t-32.5 -101.5q0 -97 63 -148t179 -53q192 0 336 147v-164q-34 -40 -121 -79t-215 -39q-194 0 -299 94.5t-105 232.5zM375 854q0 56 37.5 91.5 t95.5 35.5q57 0 91 -35t34 -92q0 -56 -34.5 -92.5t-90.5 -36.5q-57 0 -95 37t-38 92z" />
<glyph unicode="&#xc0;" horiz-adv-x="1269" d="M74 0l487 1343h150l487 -1343h-149l-150 393h-534l-140 -393h-151zM403 520h455l-223 639zM412 1761h149l146 -327h-148z" />
<glyph unicode="&#xc1;" horiz-adv-x="1269" d="M74 0l487 1343h150l487 -1343h-149l-150 393h-534l-140 -393h-151zM403 520h455l-223 639zM563 1434l146 327h147l-145 -327h-148z" />
<glyph unicode="&#xc2;" horiz-adv-x="1269" d="M74 0l487 1343h150l487 -1343h-149l-150 393h-534l-140 -393h-151zM326 1444l192 266h240l192 -266h-153l-160 221l-160 -221h-151zM403 520h455l-223 639z" />
<glyph unicode="&#xc3;" horiz-adv-x="1269" d="M74 0l487 1343h150l487 -1343h-149l-150 393h-534l-140 -393h-151zM352 1507v133q21 36 58.5 61t83.5 25q44 0 143 -60t137 -60q79 0 131 86h10v-136q-21 -36 -58 -61t-83 -25q-33 0 -75 19t-75.5 41.5t-70 41.5t-59.5 19q-78 0 -136 -84h-6zM403 520h455l-223 639z" />
<glyph unicode="&#xc4;" horiz-adv-x="1269" d="M74 0l487 1343h150l487 -1343h-149l-150 393h-534l-140 -393h-151zM291 1554q0 47 31 80t77 33t79.5 -33.5t33.5 -79.5q0 -47 -33.5 -79.5t-79.5 -32.5q-47 0 -77.5 32t-30.5 80zM403 520h455l-223 639zM756 1554q0 46 31.5 79.5t78.5 33.5q46 0 79.5 -33.5t33.5 -79.5 q0 -47 -33.5 -79.5t-79.5 -32.5q-47 0 -78.5 32.5t-31.5 79.5z" />
<glyph unicode="&#xc5;" horiz-adv-x="1269" d="M74 0l465 1284q-60 23 -92.5 74.5t-32.5 120.5q0 94 59.5 153.5t159.5 59.5t161.5 -60t61.5 -153q0 -67 -33 -118.5t-92 -76.5l467 -1284h-149l-150 393h-534l-140 -393h-151zM403 520h455l-223 639zM508 1481q0 -56 33.5 -91.5t91.5 -35.5q59 0 93 35t34 92 q0 58 -34.5 93.5t-92.5 35.5q-57 0 -91 -36t-34 -93z" />
<glyph unicode="&#xc6;" horiz-adv-x="1476" d="M70 0l374 1343h865v-133h-672l119 -422h559v-133h-520l151 -522h369v-133h-486l-131 453h-350l-127 -453h-151zM379 575h289l-144 568z" />
<glyph unicode="&#xc7;" horiz-adv-x="1216" d="M111 670q0 203 73.5 359.5t211.5 244.5t321 88q210 0 364 -105v-167q-60 54 -154.5 94.5t-207.5 40.5q-204 0 -328.5 -148t-124.5 -405q0 -156 57.5 -282t166.5 -199.5t249 -73.5q103 0 179.5 24t148.5 82l-2 -164q-101 -61 -252 -75l27 -111q12 -41 12 -78 q0 -108 -70 -176t-194 -68q-77 0 -117 17v133q53 -16 115 -16q159 0 114 182l-26 117q-174 14 -302 105t-194.5 241t-66.5 340z" />
<glyph unicode="&#xc8;" horiz-adv-x="1214" d="M203 0v1343h850v-139h-699v-409h699v-131h-699v-527h699v-137h-850zM406 1761h149l145 -327h-147z" />
<glyph unicode="&#xc9;" horiz-adv-x="1214" d="M203 0v1343h850v-139h-699v-409h699v-131h-699v-527h699v-137h-850zM537 1434l145 327h147l-145 -327h-147z" />
<glyph unicode="&#xca;" horiz-adv-x="1214" d="M203 0v1343h850v-139h-699v-409h699v-131h-699v-527h699v-137h-850zM319 1468l193 267h240l192 -267h-153l-160 222l-160 -222h-152z" />
<glyph unicode="&#xcb;" horiz-adv-x="1214" d="M203 0v1343h850v-139h-699v-409h699v-131h-699v-527h699v-137h-850zM283 1595q0 47 31 80t77 33t79.5 -33.5t33.5 -79.5q0 -47 -33.5 -79.5t-79.5 -32.5q-47 0 -77.5 32t-30.5 80zM748 1595q0 46 31.5 79.5t78.5 33.5q46 0 79.5 -33.5t33.5 -79.5q0 -47 -33.5 -79.5 t-79.5 -32.5q-47 0 -78.5 32.5t-31.5 79.5z" />
<glyph unicode="&#xcc;" horiz-adv-x="581" d="M68 1761h149l145 -327h-147zM217 0v1343h150v-1343h-150z" />
<glyph unicode="&#xcd;" horiz-adv-x="581" d="M217 0v1343h150v-1343h-150zM217 1434l145 327h148l-145 -327h-148z" />
<glyph unicode="&#xce;" horiz-adv-x="581" d="M-14 1466l192 267h240l192 -267h-153l-160 222l-160 -222h-151zM217 0v1343h150v-1343h-150z" />
<glyph unicode="&#xcf;" horiz-adv-x="581" d="M-51 1599q0 47 31 80t77 33t79.5 -33.5t33.5 -79.5q0 -47 -33.5 -79.5t-79.5 -32.5q-47 0 -77.5 32t-30.5 80zM217 0v1343h150v-1343h-150zM414 1599q0 46 31.5 79.5t78.5 33.5q46 0 79.5 -33.5t33.5 -79.5q0 -47 -33.5 -79.5t-79.5 -32.5q-47 0 -78.5 32.5t-31.5 79.5z " />
<glyph unicode="&#xd0;" horiz-adv-x="1333" d="M82 618v132h123v593h373q136 0 247 -37.5t184 -100t122 -147t70.5 -173.5t21.5 -185q0 -335 -164 -517.5t-490 -182.5h-364v618h-123zM358 133h213q253 0 374.5 139t121.5 428q0 229 -128.5 369.5t-367.5 140.5h-213v-460h357v-132h-357v-485z" />
<glyph unicode="&#xd1;" horiz-adv-x="1404" d="M205 0v1343h137l702 -1089v1089h150v-1343h-147l-689 1073v-1073h-153zM410 1503v133q21 36 58 61t83 25q44 0 143 -60t137 -60q80 0 132 86h10v-136q-21 -36 -58.5 -61t-83.5 -25q-33 0 -75 19t-75.5 41.5t-70 41.5t-59.5 19q-77 0 -135 -84h-6z" />
<glyph unicode="&#xd2;" horiz-adv-x="1376" d="M111 666q0 118 23 222.5t70.5 191.5t116.5 149.5t164.5 97.5t210.5 35q138 0 248 -54.5t179 -148.5t105 -213.5t36 -255.5q0 -149 -36.5 -277t-105.5 -225t-178.5 -152.5t-247.5 -55.5q-114 0 -210.5 37t-164.5 101.5t-116 151.5t-71 187t-23 209zM266 666 q0 -106 25.5 -201.5t76 -175t135 -127t193.5 -47.5q87 0 157.5 31.5t117 85t78 127.5t45.5 156.5t14 174.5q0 83 -15 160t-47.5 145.5t-80 119.5t-116.5 80.5t-153 29.5q-91 0 -164 -30t-122 -81t-82 -123t-47.5 -152.5t-14.5 -172.5zM461 1761h149l146 -327h-148z" />
<glyph unicode="&#xd3;" horiz-adv-x="1376" d="M111 666q0 118 23 222.5t70.5 191.5t116.5 149.5t164.5 97.5t210.5 35q138 0 248 -54.5t179 -148.5t105 -213.5t36 -255.5q0 -149 -36.5 -277t-105.5 -225t-178.5 -152.5t-247.5 -55.5q-114 0 -210.5 37t-164.5 101.5t-116 151.5t-71 187t-23 209zM266 666 q0 -106 25.5 -201.5t76 -175t135 -127t193.5 -47.5q87 0 157.5 31.5t117 85t78 127.5t45.5 156.5t14 174.5q0 83 -15 160t-47.5 145.5t-80 119.5t-116.5 80.5t-153 29.5q-91 0 -164 -30t-122 -81t-82 -123t-47.5 -152.5t-14.5 -172.5zM616 1434l146 327h147l-145 -327h-148z " />
<glyph unicode="&#xd4;" horiz-adv-x="1376" d="M111 666q0 118 23 222.5t70.5 191.5t116.5 149.5t164.5 97.5t210.5 35q138 0 248 -54.5t179 -148.5t105 -213.5t36 -255.5q0 -149 -36.5 -277t-105.5 -225t-178.5 -152.5t-247.5 -55.5q-114 0 -210.5 37t-164.5 101.5t-116 151.5t-71 187t-23 209zM266 666 q0 -106 25.5 -201.5t76 -175t135 -127t193.5 -47.5q87 0 157.5 31.5t117 85t78 127.5t45.5 156.5t14 174.5q0 83 -15 160t-47.5 145.5t-80 119.5t-116.5 80.5t-153 29.5q-91 0 -164 -30t-122 -81t-82 -123t-47.5 -152.5t-14.5 -172.5zM375 1468l192 267h240l192 -267h-153 l-160 222l-160 -222h-151z" />
<glyph unicode="&#xd5;" horiz-adv-x="1376" d="M111 666q0 118 23 222.5t70.5 191.5t116.5 149.5t164.5 97.5t210.5 35q138 0 248 -54.5t179 -148.5t105 -213.5t36 -255.5q0 -149 -36.5 -277t-105.5 -225t-178.5 -152.5t-247.5 -55.5q-114 0 -210.5 37t-164.5 101.5t-116 151.5t-71 187t-23 209zM266 666 q0 -106 25.5 -201.5t76 -175t135 -127t193.5 -47.5q87 0 157.5 31.5t117 85t78 127.5t45.5 156.5t14 174.5q0 83 -15 160t-47.5 145.5t-80 119.5t-116.5 80.5t-153 29.5q-91 0 -164 -30t-122 -81t-82 -123t-47.5 -152.5t-14.5 -172.5zM408 1505v133q21 36 58 61t83 25 q44 0 143 -60t137 -60q80 0 132 86h10v-136q-21 -36 -58.5 -61t-83.5 -25q-33 0 -75 19t-75.5 41.5t-70 41.5t-59.5 19q-77 0 -135 -84h-6z" />
<glyph unicode="&#xd6;" horiz-adv-x="1376" d="M111 666q0 118 23 222.5t70.5 191.5t116.5 149.5t164.5 97.5t210.5 35q138 0 248 -54.5t179 -148.5t105 -213.5t36 -255.5q0 -149 -36.5 -277t-105.5 -225t-178.5 -152.5t-247.5 -55.5q-114 0 -210.5 37t-164.5 101.5t-116 151.5t-71 187t-23 209zM266 666 q0 -106 25.5 -201.5t76 -175t135 -127t193.5 -47.5q87 0 157.5 31.5t117 85t78 127.5t45.5 156.5t14 174.5q0 83 -15 160t-47.5 145.5t-80 119.5t-116.5 80.5t-153 29.5q-91 0 -164 -30t-122 -81t-82 -123t-47.5 -152.5t-14.5 -172.5zM342 1595q0 47 31 80t78 33 q46 0 79 -33.5t33 -79.5q0 -47 -33 -79.5t-79 -32.5q-47 0 -78 32t-31 80zM807 1595q0 46 32 79.5t79 33.5q46 0 79 -33.5t33 -79.5q0 -47 -33 -79.5t-79 -32.5q-47 0 -79 32.5t-32 79.5z" />
<glyph unicode="&#xd7;" horiz-adv-x="1331" d="M233 1026l101 98l334 -333l331 329l93 -92l-332 -332l336 -334l-101 -98l-333 334l-330 -328l-92 92l327 328z" />
<glyph unicode="&#xd8;" horiz-adv-x="1376" d="M111 666q0 118 23 222.5t70.5 191.5t116.5 149.5t164.5 97.5t210.5 35q122 0 232 -47l57 119h143l-90 -189q110 -90 168 -237t58 -318q0 -149 -36.5 -277t-105.5 -225t-178.5 -152.5t-247.5 -55.5q-137 0 -245 51l-56 -115h-143l88 184q-112 93 -170.5 242.5t-58.5 323.5 zM266 666q0 -126 35.5 -238.5t106.5 -189.5l458 950q-79 37 -170 37t-164 -30t-122 -81t-82 -123t-47.5 -152.5t-14.5 -172.5zM512 158q76 -43 184 -43q87 0 157.5 31.5t117 85t78 127.5t45.5 156.5t14 174.5q0 124 -35 233.5t-102 184.5z" />
<glyph unicode="&#xd9;" horiz-adv-x="1347" d="M178 508v835h152v-835q0 -81 19 -150t58.5 -124.5t107.5 -87t159 -31.5q93 0 162 33.5t107.5 91t56.5 125t18 145.5v833h151v-835q0 -111 -30 -205.5t-89.5 -167.5t-155.5 -114t-220 -41q-232 0 -364 138.5t-132 389.5zM446 1761h150l145 -327h-147z" />
<glyph unicode="&#xda;" horiz-adv-x="1347" d="M178 508v835h152v-835q0 -81 19 -150t58.5 -124.5t107.5 -87t159 -31.5q93 0 162 33.5t107.5 91t56.5 125t18 145.5v833h151v-835q0 -111 -30 -205.5t-89.5 -167.5t-155.5 -114t-220 -41q-232 0 -364 138.5t-132 389.5zM584 1434l145 327h148l-146 -327h-147z" />
<glyph unicode="&#xdb;" horiz-adv-x="1347" d="M178 508v835h152v-835q0 -81 19 -150t58.5 -124.5t107.5 -87t159 -31.5q93 0 162 33.5t107.5 91t56.5 125t18 145.5v833h151v-835q0 -111 -30 -205.5t-89.5 -167.5t-155.5 -114t-220 -41q-232 0 -364 138.5t-132 389.5zM356 1468l193 267h239l193 -267h-154l-159 222 l-160 -222h-152z" />
<glyph unicode="&#xdc;" horiz-adv-x="1347" d="M178 508v835h152v-835q0 -81 19 -150t58.5 -124.5t107.5 -87t159 -31.5q93 0 162 33.5t107.5 91t56.5 125t18 145.5v833h151v-835q0 -111 -30 -205.5t-89.5 -167.5t-155.5 -114t-220 -41q-232 0 -364 138.5t-132 389.5zM322 1599q0 47 31 80t77 33t79.5 -33.5t33.5 -79.5 q0 -47 -33.5 -79.5t-79.5 -32.5q-47 0 -77.5 32t-30.5 80zM786 1599q0 46 32 79.5t79 33.5q46 0 79.5 -33.5t33.5 -79.5q0 -47 -33.5 -79.5t-79.5 -32.5q-47 0 -79 32.5t-32 79.5z" />
<glyph unicode="&#xdd;" horiz-adv-x="1198" d="M39 1343h170l389 -667l391 667h170l-483 -806v-537h-154v539zM528 1434l146 327h147l-145 -327h-148z" />
<glyph unicode="&#xde;" horiz-adv-x="1251" d="M203 0v1343h153v-221h287q244 0 377 -112t133 -316q0 -223 -135 -343t-385 -120h-277v-231h-153zM356 369h277q366 0 366 319q0 147 -94.5 224t-261.5 77h-287v-620z" />
<glyph unicode="&#xdf;" horiz-adv-x="1253" d="M215 0v956q0 226 98 361t289 135q102 0 179 -29.5t120.5 -79t64.5 -106.5t21 -119q0 -65 -22.5 -131.5t-49 -110.5t-49 -84.5t-22.5 -58.5q0 -14 32.5 -34t78.5 -48.5t92.5 -67t79 -104t32.5 -145.5q0 -162 -112.5 -258t-280.5 -96q-114 0 -227 40v156q98 -61 227 -61 q114 0 178 61t64 156q0 62 -33 110.5t-79.5 80.5t-93 61t-79.5 66t-33 81q0 36 23 83.5t50 88.5t50 99.5t23 115.5q0 88 -62 145.5t-166 57.5q-243 0 -243 -350v-971h-150z" />
<glyph unicode="&#xe0;" horiz-adv-x="1150" d="M113 289q0 153 123 230t356 77h180v72q0 95 -56 136.5t-175 41.5q-205 0 -357 -60v146q149 49 359 49q183 0 280 -74t97 -239v-473q0 -86 65 -86q48 0 84 26v-123q-48 -32 -123 -32q-69 0 -107.5 38t-47.5 86q-54 -53 -142 -88.5t-180 -35.5q-162 0 -259 78t-97 231z M262 289q0 -83 57.5 -129.5t169.5 -46.5q100 0 175.5 38t107.5 80v248h-180q-169 0 -249.5 -45.5t-80.5 -144.5zM342 1448h150l145 -328h-148z" />
<glyph unicode="&#xe1;" horiz-adv-x="1150" d="M113 289q0 153 123 230t356 77h180v72q0 95 -56 136.5t-175 41.5q-205 0 -357 -60v146q149 49 359 49q183 0 280 -74t97 -239v-473q0 -86 65 -86q48 0 84 26v-123q-48 -32 -123 -32q-69 0 -107.5 38t-47.5 86q-54 -53 -142 -88.5t-180 -35.5q-162 0 -259 78t-97 231z M262 289q0 -83 57.5 -129.5t169.5 -46.5q100 0 175.5 38t107.5 80v248h-180q-169 0 -249.5 -45.5t-80.5 -144.5zM459 1120l145 328h148l-146 -328h-147z" />
<glyph unicode="&#xe2;" horiz-adv-x="1150" d="M113 289q0 153 123 230t356 77h180v72q0 95 -56 136.5t-175 41.5q-205 0 -357 -60v146q149 49 359 49q183 0 280 -74t97 -239v-473q0 -86 65 -86q48 0 84 26v-123q-48 -32 -123 -32q-69 0 -107.5 38t-47.5 86q-54 -53 -142 -88.5t-180 -35.5q-162 0 -259 78t-97 231z M240 1145l192 266h240l192 -266h-153l-160 221l-160 -221h-151zM262 289q0 -83 57.5 -129.5t169.5 -46.5q100 0 175.5 38t107.5 80v248h-180q-169 0 -249.5 -45.5t-80.5 -144.5z" />
<glyph unicode="&#xe3;" horiz-adv-x="1150" d="M113 289q0 153 123 230t356 77h180v72q0 95 -56 136.5t-175 41.5q-205 0 -357 -60v146q149 49 359 49q183 0 280 -74t97 -239v-473q0 -86 65 -86q48 0 84 26v-123q-48 -32 -123 -32q-69 0 -107.5 38t-47.5 86q-54 -53 -142 -88.5t-180 -35.5q-162 0 -259 78t-97 231z M262 289q0 -83 57.5 -129.5t169.5 -46.5q100 0 175.5 38t107.5 80v248h-180q-169 0 -249.5 -45.5t-80.5 -144.5zM272 1188v133q21 36 58.5 61t83.5 25q44 0 143 -60.5t137 -60.5q79 0 131 86h11v-135q-21 -36 -58.5 -61t-83.5 -25q-42 0 -97 30.5t-105 60.5t-78 30 q-77 0 -135 -84h-7z" />
<glyph unicode="&#xe4;" horiz-adv-x="1150" d="M113 289q0 153 123 230t356 77h180v72q0 95 -56 136.5t-175 41.5q-205 0 -357 -60v146q149 49 359 49q183 0 280 -74t97 -239v-473q0 -86 65 -86q48 0 84 26v-123q-48 -32 -123 -32q-69 0 -107.5 38t-47.5 86q-54 -53 -142 -88.5t-180 -35.5q-162 0 -259 78t-97 231z M209 1280q0 47 31 80t77 33t79.5 -33.5t33.5 -79.5q0 -47 -33.5 -80t-79.5 -33q-47 0 -77.5 32.5t-30.5 80.5zM262 289q0 -83 57.5 -129.5t169.5 -46.5q100 0 175.5 38t107.5 80v248h-180q-169 0 -249.5 -45.5t-80.5 -144.5zM674 1280q0 46 31.5 79.5t78.5 33.5 q46 0 79.5 -33.5t33.5 -79.5q0 -47 -33.5 -80t-79.5 -33q-47 0 -78.5 32.5t-31.5 80.5z" />
<glyph unicode="&#xe5;" horiz-adv-x="1150" d="M113 289q0 153 123 230t356 77h180v72q0 95 -56 136.5t-175 41.5q-205 0 -357 -60v146q149 49 359 49q183 0 280 -74t97 -239v-473q0 -86 65 -86q48 0 84 26v-123q-48 -32 -123 -32q-69 0 -107.5 38t-47.5 86q-54 -53 -142 -88.5t-180 -35.5q-162 0 -259 78t-97 231z M262 289q0 -83 57.5 -129.5t169.5 -46.5q100 0 175.5 38t107.5 80v248h-180q-169 0 -249.5 -45.5t-80.5 -144.5zM346 1288q0 94 59.5 153.5t159.5 59.5t161.5 -60t61.5 -153t-61.5 -152t-161.5 -59t-159.5 58.5t-59.5 152.5zM440 1290q0 -56 33.5 -91.5t91.5 -35.5 q59 0 93 35t34 92q0 58 -34.5 93.5t-92.5 35.5q-57 0 -91 -36t-34 -93z" />
<glyph unicode="&#xe6;" horiz-adv-x="1779" d="M129 295q0 311 479 311h180v68q-1 54 -20 90.5t-54 54t-72.5 24.5t-86.5 7q-212 0 -354 -57v139q138 49 358 49q272 0 344 -156q134 156 357 156q81 0 148.5 -25t112 -65t76 -92.5t45 -106t13.5 -106.5q0 -78 -8 -164h-709q6 -134 90 -220.5t240 -86.5q110 0 215.5 46.5 t161.5 94.5v-152q-51 -43 -154 -83.5t-225 -40.5q-261 0 -383 170q-69 -67 -178.5 -118.5t-221.5 -51.5q-162 0 -258 80.5t-96 234.5zM279 295q0 -88 56 -136t169 -48q101 0 175.5 38.5t108.5 81.5v261h-180q-172 0 -250.5 -48t-78.5 -149zM938 539h580q10 142 -62.5 224.5 t-195.5 82.5q-141 0 -231.5 -85t-90.5 -222z" />
<glyph unicode="&#xe7;" horiz-adv-x="1081" d="M104 492q0 215 138.5 352t355.5 137q129 0 225 -40.5t138 -82.5v-176q-26 32 -70 66t-125.5 66t-167.5 32q-162 0 -252 -98t-90 -256q0 -167 93.5 -272t248.5 -105q66 0 128.5 18.5t108.5 48t76 55.5t50 50v-176q-37 -37 -112.5 -76t-174.5 -51l26 -111q13 -44 13 -78 q0 -108 -70 -176t-194 -68q-77 0 -117 17v133q53 -16 114 -16q160 0 115 182l-26 117q-193 21 -312 157.5t-119 350.5z" />
<glyph unicode="&#xe8;" horiz-adv-x="1097" d="M104 494q0 216 129 351.5t332 135.5q85 0 154.5 -25t116 -66t78 -95.5t45.5 -111t14 -114.5q0 -79 -12 -147h-705q8 -134 90.5 -220.5t237.5 -86.5q110 0 215.5 46.5t161.5 94.5v-152q-48 -42 -151.5 -83t-225.5 -41q-239 0 -359.5 140t-120.5 374zM256 539h571 q12 143 -59.5 225t-202.5 82q-136 0 -222.5 -85t-86.5 -222zM377 1448h149l146 -328h-148z" />
<glyph unicode="&#xe9;" horiz-adv-x="1097" d="M104 494q0 216 129 351.5t332 135.5q85 0 154.5 -25t116 -66t78 -95.5t45.5 -111t14 -114.5q0 -79 -12 -147h-705q8 -134 90.5 -220.5t237.5 -86.5q110 0 215.5 46.5t161.5 94.5v-152q-48 -42 -151.5 -83t-225.5 -41q-239 0 -359.5 140t-120.5 374zM256 539h571 q12 143 -59.5 225t-202.5 82q-136 0 -222.5 -85t-86.5 -222zM508 1120l145 328h148l-146 -328h-147z" />
<glyph unicode="&#xea;" horiz-adv-x="1097" d="M104 494q0 216 129 351.5t332 135.5q85 0 154.5 -25t116 -66t78 -95.5t45.5 -111t14 -114.5q0 -79 -12 -147h-705q8 -134 90.5 -220.5t237.5 -86.5q110 0 215.5 46.5t161.5 94.5v-152q-48 -42 -151.5 -83t-225.5 -41q-239 0 -359.5 140t-120.5 374zM256 539h571 q12 143 -59.5 225t-202.5 82q-136 0 -222.5 -85t-86.5 -222zM256 1147l193 266h239l193 -266h-154l-160 221l-159 -221h-152z" />
<glyph unicode="&#xeb;" horiz-adv-x="1097" d="M104 494q0 216 129 351.5t332 135.5q85 0 154.5 -25t116 -66t78 -95.5t45.5 -111t14 -114.5q0 -79 -12 -147h-705q8 -134 90.5 -220.5t237.5 -86.5q110 0 215.5 46.5t161.5 94.5v-152q-48 -42 -151.5 -83t-225.5 -41q-239 0 -359.5 140t-120.5 374zM231 1278q0 47 31 80 t78 33q46 0 79.5 -33.5t33.5 -79.5q0 -47 -33.5 -80t-79.5 -33q-47 0 -78 32.5t-31 80.5zM256 539h571q12 143 -59.5 225t-202.5 82q-136 0 -222.5 -85t-86.5 -222zM696 1278q0 46 32 79.5t79 33.5q46 0 79.5 -33.5t33.5 -79.5q0 -47 -33.5 -80t-79.5 -33q-47 0 -79 33 t-32 80z" />
<glyph unicode="&#xec;" horiz-adv-x="595" d="M72 1448h149l146 -328h-148zM221 0v961h150v-961h-150z" />
<glyph unicode="&#xed;" horiz-adv-x="595" d="M221 0v961h150v-961h-150zM223 1120l146 328h147l-145 -328h-148z" />
<glyph unicode="&#xee;" horiz-adv-x="595" d="M-14 1147l192 266h240l192 -266h-153l-160 221l-160 -221h-151zM221 0v961h150v-961h-150z" />
<glyph unicode="&#xef;" horiz-adv-x="595" d="M-6 1280q0 46 31.5 79.5t78.5 33.5q46 0 79.5 -33.5t33.5 -79.5q0 -47 -33.5 -80t-79.5 -33q-47 0 -78.5 32.5t-31.5 80.5zM221 0v961h150v-961h-150zM379 1280q0 46 31.5 79.5t78.5 33.5q46 0 79.5 -33.5t33.5 -79.5q0 -47 -33.5 -80t-79.5 -33q-47 0 -78.5 32.5 t-31.5 80.5z" />
<glyph unicode="&#xf0;" horiz-adv-x="1206" d="M141 455q0 93 29 175t84 145.5t142 100.5t194 37q115 0 197.5 -44.5t134.5 -106.5q-17 193 -162 389l-213 -107l-47 82l198 99q-111 120 -239 202h198q81 -54 160 -143l180 88l47 -80l-167 -84q89 -121 141.5 -268t52.5 -299q0 -308 -120.5 -484.5t-350.5 -176.5 q-108 0 -196.5 39.5t-145 106t-87 151.5t-30.5 178zM293 455q0 -139 82 -236.5t225 -97.5q108 0 180 60t106 163t38 250q-128 182 -334 182q-138 0 -217.5 -89.5t-79.5 -231.5z" />
<glyph unicode="&#xf1;" horiz-adv-x="1228" d="M199 0v961h149v-78q133 98 303 98q183 0 284 -97t101 -268v-616h-149v616q0 115 -70 172.5t-199 57.5q-90 0 -162.5 -31.5t-107.5 -66.5v-748h-149zM348 1188v133q21 36 58 61t83 25q44 0 143.5 -60.5t137.5 -60.5q79 0 131 86h10v-135q-21 -36 -58 -61t-83 -25 q-42 0 -97.5 30.5t-105.5 60.5t-78 30q-77 0 -135 -84h-6z" />
<glyph unicode="&#xf2;" d="M104 477q0 220 127 362t338 142q214 0 342.5 -142t128.5 -362q0 -219 -128 -358t-343 -139q-212 0 -338.5 139t-126.5 358zM256 479q0 -161 83 -262.5t230 -101.5q151 0 235.5 101.5t84.5 264.5q0 165 -84 265t-236 100q-147 0 -230 -101.5t-83 -265.5zM356 1448h150 l145 -328h-147z" />
<glyph unicode="&#xf3;" d="M104 477q0 220 127 362t338 142q214 0 342.5 -142t128.5 -362q0 -219 -128 -358t-343 -139q-212 0 -338.5 139t-126.5 358zM256 479q0 -161 83 -262.5t230 -101.5q151 0 235.5 101.5t84.5 264.5q0 165 -84 265t-236 100q-147 0 -230 -101.5t-83 -265.5zM514 1120l145 328 h148l-145 -328h-148z" />
<glyph unicode="&#xf4;" d="M104 477q0 220 127 362t338 142q214 0 342.5 -142t128.5 -362q0 -219 -128 -358t-343 -139q-212 0 -338.5 139t-126.5 358zM256 479q0 -161 83 -262.5t230 -101.5q151 0 235.5 101.5t84.5 264.5q0 165 -84 265t-236 100q-147 0 -230 -101.5t-83 -265.5zM260 1147l193 266 h239l193 -266h-154l-160 221l-159 -221h-152z" />
<glyph unicode="&#xf5;" d="M104 477q0 220 127 362t338 142q214 0 342.5 -142t128.5 -362q0 -219 -128 -358t-343 -139q-212 0 -338.5 139t-126.5 358zM256 479q0 -161 83 -262.5t230 -101.5q151 0 235.5 101.5t84.5 264.5q0 165 -84 265t-236 100q-147 0 -230 -101.5t-83 -265.5zM291 1190v133 q21 36 58 61t83 25q44 0 143.5 -60.5t137.5 -60.5q79 0 131 86h10v-135q-21 -36 -58 -61t-83 -25q-42 0 -97.5 30.5t-105.5 60.5t-78 30q-77 0 -135 -84h-6z" />
<glyph unicode="&#xf6;" d="M104 477q0 220 127 362t338 142q214 0 342.5 -142t128.5 -362q0 -219 -128 -358t-343 -139q-212 0 -338.5 139t-126.5 358zM229 1278q0 47 31 80t78 33q46 0 79.5 -33.5t33.5 -79.5q0 -47 -33.5 -80t-79.5 -33q-47 0 -78 32.5t-31 80.5zM256 479q0 -161 83 -262.5 t230 -101.5q151 0 235.5 101.5t84.5 264.5q0 165 -84 265t-236 100q-147 0 -230 -101.5t-83 -265.5zM694 1278q0 46 32 79.5t79 33.5q46 0 79.5 -33.5t33.5 -79.5q0 -47 -33.5 -80t-79.5 -33q-47 0 -79 33t-32 80z" />
<glyph unicode="&#xf7;" horiz-adv-x="1331" d="M195 629v131h940v-131h-940zM541 305q0 55 35 91t90 36q54 0 90.5 -36.5t36.5 -90.5q0 -56 -36 -91.5t-91 -35.5q-56 0 -90.5 35t-34.5 92zM541 1077q0 56 35 91.5t90 35.5q54 0 90.5 -36t36.5 -91q0 -56 -36 -91.5t-91 -35.5q-56 0 -90.5 35t-34.5 92z" />
<glyph unicode="&#xf8;" d="M104 477q0 220 127 362t338 142q130 0 230 -53l37 55h151l-88 -131q141 -144 141 -375q0 -219 -128 -358t-343 -139q-121 0 -221 49l-45 -66h-151l94 139q-142 139 -142 375zM256 479q0 -152 74 -252l391 584q-65 35 -152 35q-147 0 -230 -101.5t-83 -265.5zM426 145 q62 -30 143 -30q151 0 235.5 101.5t84.5 264.5q0 151 -72 248z" />
<glyph unicode="&#xf9;" horiz-adv-x="1179" d="M176 348v613h148v-615q0 -231 256 -231q80 0 150.5 27.5t115.5 72.5v746h147v-961h-147v78q-155 -98 -301 -98q-180 0 -274.5 99t-94.5 269zM367 1448h149l146 -328h-148z" />
<glyph unicode="&#xfa;" horiz-adv-x="1179" d="M176 348v613h148v-615q0 -231 256 -231q80 0 150.5 27.5t115.5 72.5v746h147v-961h-147v78q-155 -98 -301 -98q-180 0 -274.5 99t-94.5 269zM512 1120l145 328h148l-146 -328h-147z" />
<glyph unicode="&#xfb;" horiz-adv-x="1179" d="M176 348v613h148v-615q0 -231 256 -231q80 0 150.5 27.5t115.5 72.5v746h147v-961h-147v78q-155 -98 -301 -98q-180 0 -274.5 99t-94.5 269zM274 1145l193 266h240l192 -266h-154l-159 221l-160 -221h-152z" />
<glyph unicode="&#xfc;" horiz-adv-x="1179" d="M176 348v613h148v-615q0 -231 256 -231q80 0 150.5 27.5t115.5 72.5v746h147v-961h-147v78q-155 -98 -301 -98q-180 0 -274.5 99t-94.5 269zM248 1278q0 47 31 80t77 33t79.5 -33.5t33.5 -79.5q0 -47 -33.5 -80t-79.5 -33q-47 0 -77.5 32.5t-30.5 80.5zM713 1278 q0 46 31.5 79.5t78.5 33.5q46 0 79.5 -33.5t33.5 -79.5q0 -47 -33.5 -80t-79.5 -33q-47 0 -78.5 32.5t-31.5 80.5z" />
<glyph unicode="&#xfd;" horiz-adv-x="1062" d="M66 961h161l338 -822l291 822h156l-367 -986q-28 -76 -53.5 -132t-62.5 -113.5t-77.5 -93.5t-96 -59t-119.5 -23q-105 0 -168 38v148q96 -51 168 -51q80 0 143.5 69.5t116.5 221.5zM483 1120l146 328h147l-145 -328h-148z" />
<glyph unicode="&#xfe;" horiz-adv-x="1204" d="M199 -428v1841l149 17v-562q109 113 287 113q213 0 338 -140.5t125 -361.5q0 -216 -131 -357.5t-349 -141.5q-82 0 -153 24t-117 64v-496h-149zM348 203q28 -30 95.5 -59t162.5 -29q158 0 249 96.5t91 267.5q0 163 -84.5 265t-255.5 102q-90 0 -158.5 -36.5t-99.5 -78.5 v-528z" />
<glyph unicode="&#xff;" horiz-adv-x="1062" d="M66 961h161l338 -822l291 822h156l-367 -986q-28 -76 -53.5 -132t-62.5 -113.5t-77.5 -93.5t-96 -59t-119.5 -23q-105 0 -168 38v148q96 -51 168 -51q80 0 143.5 69.5t116.5 221.5zM209 1280q0 47 31 80t77 33t79.5 -33.5t33.5 -79.5q0 -47 -33.5 -80t-79.5 -33 q-47 0 -77.5 32.5t-30.5 80.5zM674 1280q0 46 31.5 79.5t78.5 33.5q46 0 79.5 -33.5t33.5 -79.5q0 -47 -33.5 -80t-79.5 -33q-47 0 -78.5 32.5t-31.5 80.5z" />
<glyph unicode="&#x152;" horiz-adv-x="2021" d="M109 666q0 150 37.5 276t109.5 220t185.5 147t256.5 53q188 0 312 -86v67h850v-133h-697v-415h697v-131h-697v-531h697v-133h-850v66q-128 -86 -310 -86q-115 0 -212.5 37t-166.5 102t-117.5 152t-71.5 187t-23 208zM264 666q0 -107 26 -203t77.5 -175t136.5 -126 t194 -47q116 0 197.5 41.5t114.5 85.5v858q-34 41 -117 83t-195 42q-115 0 -201 -44.5t-135.5 -123t-73.5 -176.5t-24 -215z" />
<glyph unicode="&#x153;" horiz-adv-x="1884" d="M104 477q0 220 127 362t338 142q128 0 228.5 -60t160.5 -165q59 105 165.5 165t240.5 60q81 0 148.5 -25t112.5 -66t76 -95t44.5 -109.5t13.5 -112.5q0 -89 -12 -151h-703q6 -134 89 -220.5t239 -86.5q110 0 215.5 46.5t161.5 94.5v-152q-51 -43 -154 -83.5t-225 -40.5 q-297 0 -414 219q-58 -104 -158.5 -163t-228.5 -59q-212 0 -338.5 140.5t-126.5 359.5zM256 479q0 -161 83 -262.5t230 -101.5q151 0 235.5 101.5t84.5 264.5q0 166 -84 267.5t-236 101.5q-147 0 -230 -103.5t-83 -267.5zM1044 539h578q10 142 -62.5 226.5t-195.5 84.5 q-139 0 -229.5 -87t-90.5 -224z" />
<glyph unicode="&#x178;" horiz-adv-x="1198" d="M39 1343h170l389 -667l391 667h170l-483 -806v-537h-154v539zM254 1599q0 47 31 80t77 33t79.5 -33.5t33.5 -79.5q0 -47 -33.5 -79.5t-79.5 -32.5q-47 0 -77.5 32t-30.5 80zM719 1599q0 46 31.5 79.5t78.5 33.5q46 0 79.5 -33.5t33.5 -79.5q0 -47 -33.5 -79.5 t-79.5 -32.5q-47 0 -78.5 32.5t-31.5 79.5z" />
<glyph unicode="&#x2c6;" horiz-adv-x="1228" d="M301 1167l193 267h239l193 -267h-154l-160 222l-159 -222h-152z" />
<glyph unicode="&#x2dc;" horiz-adv-x="1228" d="M332 1202v133q21 36 58 61t83 25q44 0 143.5 -60.5t137.5 -60.5q79 0 131 86h10v-135q-21 -36 -58 -61t-83 -25q-42 0 -97.5 30.5t-105.5 60.5t-78 30q-77 0 -135 -84h-6z" />
<glyph unicode="&#x2000;" horiz-adv-x="880" />
<glyph unicode="&#x2001;" horiz-adv-x="1761" />
<glyph unicode="&#x2002;" horiz-adv-x="880" />
<glyph unicode="&#x2003;" horiz-adv-x="1761" />
<glyph unicode="&#x2004;" horiz-adv-x="587" />
<glyph unicode="&#x2005;" horiz-adv-x="440" />
<glyph unicode="&#x2006;" horiz-adv-x="293" />
<glyph unicode="&#x2007;" horiz-adv-x="293" />
<glyph unicode="&#x2008;" horiz-adv-x="220" />
<glyph unicode="&#x2009;" horiz-adv-x="352" />
<glyph unicode="&#x200a;" horiz-adv-x="97" />
<glyph unicode="&#x2010;" horiz-adv-x="942" d="M152 506v131h639l-17 -131h-622z" />
<glyph unicode="&#x2011;" horiz-adv-x="942" d="M152 506v131h639l-17 -131h-622z" />
<glyph unicode="&#x2012;" horiz-adv-x="942" d="M152 506v131h639l-17 -131h-622z" />
<glyph unicode="&#x2013;" horiz-adv-x="1433" d="M205 508v131h1024v-131h-1024z" />
<glyph unicode="&#x2014;" horiz-adv-x="2048" d="M205 508v131h1638v-131h-1638z" />
<glyph unicode="&#x2018;" horiz-adv-x="571" d="M172 870l113 519h118l-49 -519h-182z" />
<glyph unicode="&#x2019;" horiz-adv-x="571" d="M170 870l47 519h182l-110 -519h-119z" />
<glyph unicode="&#x201a;" horiz-adv-x="571" d="M170 -295l47 518h182l-110 -518h-119z" />
<glyph unicode="&#x201c;" horiz-adv-x="944" d="M172 870l113 519h118l-49 -519h-182zM545 870l112 519h119l-49 -519h-182z" />
<glyph unicode="&#x201d;" horiz-adv-x="944" d="M170 870l47 519h182l-110 -519h-119zM543 870l47 519h182l-110 -519h-119z" />
<glyph unicode="&#x201e;" horiz-adv-x="944" d="M170 -295l47 518h182l-110 -518h-119zM543 -295l47 518h182l-110 -518h-119z" />
<glyph unicode="&#x2022;" horiz-adv-x="1017" d="M240 547q0 118 74.5 195t193.5 77q116 0 193 -77.5t77 -194.5q0 -118 -77 -193t-193 -75q-120 0 -194 74.5t-74 193.5z" />
<glyph unicode="&#x2026;" horiz-adv-x="1812" d="M162 106q0 56 36 94t91 38t93 -38t38 -94q0 -55 -37.5 -90.5t-93.5 -35.5t-91.5 35.5t-35.5 90.5zM778 106q0 57 35.5 94.5t93.5 37.5q54 0 91.5 -38.5t37.5 -93.5t-37 -90.5t-92 -35.5q-58 0 -93.5 35t-35.5 91zM1393 106q0 56 36 94t91 38q57 0 95 -38t38 -94 q0 -55 -38 -90.5t-95 -35.5q-56 0 -91.5 35.5t-35.5 90.5z" />
<glyph unicode="&#x202f;" horiz-adv-x="352" />
<glyph unicode="&#x2039;" horiz-adv-x="677" d="M100 451v63l357 387h159l-376 -420l376 -420h-159z" />
<glyph unicode="&#x203a;" horiz-adv-x="677" d="M61 61l375 420l-375 420h160l357 -387v-63l-357 -390h-160z" />
<glyph unicode="&#x205f;" horiz-adv-x="440" />
<glyph unicode="&#x20ac;" horiz-adv-x="1363" d="M102 453v127h189q-4 29 -4 90q0 59 4 90h-189v127h209q52 219 205 347t377 128q210 0 364 -105v-167q-60 54 -154.5 94.5t-207.5 40.5q-157 0 -268.5 -88.5t-157.5 -249.5h782v-127h-805q-4 -29 -4 -88q0 -63 4 -92h805v-127h-774q51 -153 166 -244.5t272 -91.5 q103 0 179.5 24t148.5 82q0 -28 -1 -83t-1 -81q-43 -28 -128 -53.5t-198 -25.5q-235 0 -392.5 127.5t-211.5 345.5h-209z" />
<glyph unicode="&#x2122;" horiz-adv-x="1689" d="M115 1290v99h581v-99h-239v-678h-109v678h-233zM844 612v777h139l223 -555l232 555h137v-777h-109v551l-252 -561h-18l-242 561v-551h-110z" />
<glyph unicode="&#x25fc;" horiz-adv-x="962" d="M0 0v963h963v-963h-963z" />
<glyph unicode="&#xfb01;" horiz-adv-x="1527" d="M59 831v130h236v32q0 227 90 343t268 116q88 0 157 -16t103 -33v-143q-38 23 -109 43t-151 20q-118 0 -164.5 -80.5t-46.5 -251.5v-30h402v-130h-402v-831h-147v831h-236zM1118 1303q0 46 32 79t79 33q46 0 79 -33t33 -79q0 -47 -33 -80t-79 -33q-47 0 -79 33t-32 80z M1153 0v961h150v-961h-150z" />
<glyph unicode="&#xfb02;" horiz-adv-x="1480" d="M59 831v130h236v32q0 227 90 343t268 116q88 0 157 -16t103 -33v-143q-38 23 -109 43t-151 20q-118 0 -164.5 -80.5t-46.5 -251.5v-30h402v-130h-402v-831h-147v831h-236zM1130 0v1413l150 17v-1430h-150z" />
</font>
</defs>
</svg>
